<svg id="Layer_1" data-name="Layer 1" xmlns="http://www.w3.org/2000/svg" viewBox="0 0 600 600"><defs><style>.cls-1{fill:#bbbcbe;}.cls-2{fill:#e70f68;}.cls-3{fill:#8d8f92;}.cls-4{fill:#1b75b6;}.cls-5{fill:#cbcdce;}.cls-6{fill:#2b2972;}.cls-7{fill:none;}.cls-8{fill:#85878a;}.cls-9{fill:#b8b8b8;}</style></defs><title>Untitled-1</title><polygon class="cls-1" points="415.19 234.47 418.02 238.24 418.63 240.99 414.9 240.32 415.19 234.47"/><polygon class="cls-1" points="236.95 281.48 240.23 286.48 236.95 290.04 233.21 286.83 236.95 281.48"/><path class="cls-1" d="M229,285q-5.7-.65-11.64-1.11a395.83,395.83,0,0,0,12.39-51.19,339,339,0,0,0,4.87-51.87q.09-7.86-.26-14.61t-1.12-12.68A95.63,95.63,0,0,0,228,131.65a56.74,56.74,0,0,0-3.85-8.18c-4.4-1.14-7.87-.33-11.17,2.86a63.31,63.31,0,0,1,3.34,7.57,82.77,82.77,0,0,1,4,17.34,167.77,167.77,0,0,1,.87,28.75,360.36,360.36,0,0,1-4.35,40q-2.48,15.18-6.39,31t-9.21,31.92q-10.58-.42-21,0t-20.71,1.77a200.45,200.45,0,0,0-30.67,6.53,162.72,162.72,0,0,0-28.34,11.34,141.11,141.11,0,0,0-24.81,16.26A113.26,113.26,0,0,0,55.64,340a128.85,128.85,0,0,0-10.73,17.33,99,99,0,0,0-6.55,16.08,69.45,69.45,0,0,0-2.87,14.81,65.26,65.26,0,0,0,.29,13.28q1.61,12,7,20.29a45.51,45.51,0,0,0,13.05,13.33A46.88,46.88,0,0,0,72.42,442a51.67,51.67,0,0,0,17.33.71,70.13,70.13,0,0,0,19-5.46,109.33,109.33,0,0,0,19-10.87,165.36,165.36,0,0,0,18.44-15.21,207.65,207.65,0,0,0,17.17-18.4,217.79,217.79,0,0,0,15.18-20.72,209.89,209.89,0,0,0,12.43-22q7-14.54,13.05-29.35t11.14-30.07q6.08.45,12,1.14t11.9,1.43l1.2-6.75Q234.65,285.68,229,285Zm-45,41.8q-7.69,17.55-16.44,33.43a310.55,310.55,0,0,1-18.36,29.49,179.9,179.9,0,0,1-19.76,23.72,99.64,99.64,0,0,1-20.7,16.14,50.39,50.39,0,0,1-20.95,6.85,43.92,43.92,0,0,1-15.11-.38A31.58,31.58,0,0,1,60.76,431a28.9,28.9,0,0,1-8.22-9.14,33.65,33.65,0,0,1-4.12-12.56A57.88,57.88,0,0,1,49.78,389a96,96,0,0,1,8.82-23.32A130,130,0,0,1,74.91,341.9a132.75,132.75,0,0,1,23.93-21.82,154.49,154.49,0,0,1,31.49-17.22,156.72,156.72,0,0,1,39.09-10.11q7.29-1,14.32-1.34t14.18-.34Q191.65,309.28,184,326.84Z"/><polygon class="cls-1" points="224.13 123.47 221.75 118.89 220.85 118.47 220.45 120.45 222.58 125.08 224.13 123.47"/><path class="cls-1" d="M248.9,405.81q-6.39,7.5-12.64,13.82a103,103,0,0,1-12.43,10.83,60.86,60.86,0,0,1-12.3,7.09,31.66,31.66,0,0,1-12.36,2.57,23.31,23.31,0,0,1-9.52-1.88,21.94,21.94,0,0,1-7.36-5.28,23,23,0,0,1-4.79-8.33,34.42,34.42,0,0,1-1.67-11.05,50.88,50.88,0,0,1,4.24-19.72,113.25,113.25,0,0,1,10.7-19.73,158.71,158.71,0,0,1,14.3-18.2q7.86-8.61,14.94-15.28l6,4.17q-5,7.37-11.18,16.67t-11.67,19.24a152.33,152.33,0,0,0-9.24,19.87,52.35,52.35,0,0,0-3.75,18.4,20.47,20.47,0,0,0,2.15,9.73q2.16,4,8.27,4,6.67,0,14.66-5.28a105.6,105.6,0,0,0,16.39-13.76,228.57,228.57,0,0,0,16.81-19.1q8.4-10.62,15.9-21.46T278,352.46q6.18-9.87,10.07-16.81l10.14,5q-8.06,15.84-15.49,29.52t-13.2,24.59q-5.76,10.9-9.17,19T257,426.5a5.7,5.7,0,0,0,.83,3.2,3,3,0,0,0,2.64,1.25q5.15.14,11.33-4.45A87.54,87.54,0,0,0,284.26,415a184.36,184.36,0,0,0,12.36-15.21q6-8.26,10.91-15.49l5,3.89q-.84,1.39-3.48,5.7t-6.52,9.86q-3.9,5.55-8.9,11.67a105.21,105.21,0,0,1-10.55,11.18,59.45,59.45,0,0,1-11.53,8.34,24.58,24.58,0,0,1-11.81,3.26,15.81,15.81,0,0,1-6.46-1.25,14.18,14.18,0,0,1-4.79-3.33,15.42,15.42,0,0,1-3.06-4.86,15.59,15.59,0,0,1-1.11-5.84A30.06,30.06,0,0,1,245.5,415,61.39,61.39,0,0,1,248.9,405.81Z"/><path class="cls-1" d="M408.11,234a13.54,13.54,0,0,1,8.12,2.36q3.27,2.37,3.27,8.62a37.66,37.66,0,0,1-1.74,10.28,117.48,117.48,0,0,1-4.72,13q-3,7-7,14.72t-8.68,15.35q-4.66,7.65-9.73,14.87t-10.07,13.33q-10,12.38-17.29,20.84T347.68,361.7q-5.3,5.91-8.89,9.58t-6.4,6.33q-2.77,2.63-5.14,4.79t-4.86,4.79a45.53,45.53,0,0,0-1,10.07q.07,4.8.07,8.82,0,12.09,3.89,17.92a12.44,12.44,0,0,0,11,5.84,20.82,20.82,0,0,0,9.52-2.44,51.93,51.93,0,0,0,9.52-6.31,86.87,86.87,0,0,0,9.16-8.83q4.45-4.92,8.41-10t7.15-9.79q3.19-4.73,5.56-8.2l5.14,3.89q-.42.55-2.71,4.38c-1.53,2.55-3.54,5.62-6,9.24s-5.47,7.48-8.89,11.6A104.76,104.76,0,0,1,362,424.84a63.62,63.62,0,0,1-12.57,8.75,28.1,28.1,0,0,1-24.31,1.32,24,24,0,0,1-9.17-6.81,35.61,35.61,0,0,1-6.39-11.88,54.7,54.7,0,0,1-2.43-17.36,124.67,124.67,0,0,1,3-26.46,207.59,207.59,0,0,1,8.12-27.79A253.93,253.93,0,0,1,330.31,317q6.94-13.61,14.79-25.9a244.72,244.72,0,0,1,16.4-22.79,174.26,174.26,0,0,1,16.81-18.12,86.12,86.12,0,0,1,15.9-11.95Q401.85,234,408.11,234ZM324.89,374.83q11.81-12.22,22.85-24.8t20.7-24.87q9.66-12.29,17.71-23.89a255.88,255.88,0,0,0,13.76-21.88,145.24,145.24,0,0,0,8.89-18.76c2.13-5.64,3.19-10.51,3.19-14.58a6.47,6.47,0,0,0-1.11-3,3.14,3.14,0,0,0-2.64-1.87q-4.31,0-11.39,5.69a115.92,115.92,0,0,0-15.35,15.49,267.85,267.85,0,0,0-17.08,22.85,289.86,289.86,0,0,0-16.61,27.93,298.21,298.21,0,0,0-13.89,30.7A182,182,0,0,0,324.89,374.83Z"/><path class="cls-1" d="M422,343.71q-1.81,3.62-5.08,9.51t-7,12.92q-3.75,7-7.64,14.73t-7,15a136.44,136.44,0,0,0-5.07,13.68,38.69,38.69,0,0,0-1.94,10.84c0,2.69.56,4.51,1.67,5.49a6.94,6.94,0,0,0,4.72,1.46,19.29,19.29,0,0,0,11.11-3.75,61.06,61.06,0,0,0,10.77-9.8A124.65,124.65,0,0,0,427,400q5.13-7.79,10.28-15.7l5,3.89q-4,7.23-9.1,15.42a108.81,108.81,0,0,1-11.32,15.21,61.1,61.1,0,0,1-13.75,11.6,30.86,30.86,0,0,1-16.4,4.59c-5.56,0-9.81-1.67-12.78-5s-4.44-7.64-4.44-12.92a49.7,49.7,0,0,1,4.3-19.45,129.74,129.74,0,0,1,10.77-20.07,206.86,206.86,0,0,1,14-19.11q7.56-9.17,14-16.67Z"/><polygon class="cls-1" points="422 343.71 419.48 340.35 416.56 340.96 418.48 345.44 422 343.71"/><polygon class="cls-1" points="298.22 340.65 295.7 337.3 292.78 337.91 294.7 342.38 298.22 340.65"/><polygon class="cls-1" points="225.98 344.82 223.47 341.47 220.54 342.08 222.46 346.55 225.98 344.82"/><path class="cls-1" d="M547.72,343.71c-1.2,2.41-2.9,5.56-5.07,9.44s-4.52,8.18-7,12.85-5,9.57-7.57,14.66-4.86,10.07-6.94,14.93A144.71,144.71,0,0,0,516,409.35a37.88,37.88,0,0,0-2,10.9q0,4.46,1.74,5.77a7.25,7.25,0,0,0,4.51,1.32,17,17,0,0,0,8.27-2.36,44.91,44.91,0,0,0,8.33-6.12,82.54,82.54,0,0,0,8-8.47q3.88-4.72,7.3-9.52t6.17-9.17q2.79-4.36,4.73-7.43l5,3.89q-2.37,4.45-5.56,9.59c-2.13,3.43-4.47,6.87-7,10.35a120.37,120.37,0,0,1-8.27,10.07,71,71,0,0,1-9.37,8.61,45.84,45.84,0,0,1-10.35,6A29.07,29.07,0,0,1,516.32,435q-8.34,0-12.22-5t-3.89-12.92c0-.37,0-1.18.07-2.43a15.15,15.15,0,0,1,.34-3,120.25,120.25,0,0,1-13.26,14.45,70.22,70.22,0,0,1-12.23,9,43.71,43.71,0,0,1-21.87,6,28.12,28.12,0,0,1-9.94-1.74,24.18,24.18,0,0,1-8.2-5.07,23.29,23.29,0,0,1-5.55-8.19,29.27,29.27,0,0,1-2-11.26,55.92,55.92,0,0,1,3.55-18.12q3.54-10.21,12.57-22a103.06,103.06,0,0,1,15.91-17.09,93.06,93.06,0,0,1,16.25-11.18A67.73,67.73,0,0,1,491,340.37a54,54,0,0,1,12.92-1.8q12.78,0,19.31,4.23t7.92,13q2.77-3.46,5.83-6.94l6.25-7.09ZM505.07,396.5c1.2-1.95,2.69-4.43,4.45-7.44s3.61-6.11,5.55-9.3,3.84-6.28,5.7-9.24,3.47-5.46,4.86-7.5a37.12,37.12,0,0,0-.35-4,16.1,16.1,0,0,0-1.87-5.63,13.37,13.37,0,0,0-4.86-4.93q-3.34-2.08-9.31-2.08a40.76,40.76,0,0,0-9.66,1.32,52.61,52.61,0,0,0-11.39,4.44,75.2,75.2,0,0,0-12.43,8.27A92.21,92.21,0,0,0,463,373.16a101.93,101.93,0,0,0-14.8,23.13Q443,407.89,443,417.2q0,7.91,3.61,12.22t10.29,4.31a31.05,31.05,0,0,0,14.31-3.41,54.87,54.87,0,0,0,12.5-8.82,110.54,110.54,0,0,0,11.11-12Q500.07,402.89,505.07,396.5Z"/><polygon class="cls-1" points="568 388.16 565.48 384.81 562.56 385.42 564.48 389.89 568 388.16"/><polygon class="cls-1" points="547.72 343.71 545.2 340.35 542.28 340.96 544.2 345.44 547.72 343.71"/><path class="cls-2" d="M233.69,173.33c36.53-14.88,72.27-31.65,108.77-46.63C382,110.49,422.9,93.79,465.23,86.78c17.75-2.94,36.65-3.37,53.49,4,17.5,7.6,26.89,24.82,14.36,41.51-7,9.31-17.53,15.31-27.17,21.5S486.5,165.6,476.46,171c-11.76,6.29-52.19,23.78-36.2,43.36,6.8,8.32,18.21,9,26.79,14.58,9.12,5.92,11.54,16,9.89,26.33-4.18,26.3-31.41,44.87-52,58.64-3.21,2.16-2.27,4.21,1.25,4.67,4.34.56,10.12-1.27,13.72-3.68,19.46-13,42.68-29.25,52.78-51.18,4.24-9.21,6.34-22.42,1.52-31.82-3.72-7.25-10.61-11.22-17.92-14.12-7.7-3.06-21-7-20.05-17.71,1.07-12.45,18.6-19.18,27.74-24,11-5.79,21.83-11.86,32.35-18.45,10.34-6.47,21.32-12.9,30-21.58,13.69-13.7,17.32-33,.77-46C530.94,77.23,507.43,75.3,487.6,76.73c-44.5,3.2-88.33,19.86-129.51,36C313.8,130,270.85,150.41,226.83,168.35c-1.85.75-8,3.05-5.69,5.87,2.07,2.53,10.4,0,12.55-.89Z"/><polygon class="cls-3" points="421.02 316.46 421.06 334.31 436.42 326.33 421.02 316.46"/><polygon class="cls-3" points="421.06 334.31 419.67 333.24 423.96 329.77 424.77 332.14 421.06 334.31"/><path class="cls-3" d="M446.33,313a13.64,13.64,0,1,0-12.4,14.77A13.63,13.63,0,0,0,446.33,313Z"/><path class="cls-3" d="M442.78,313.3a10.07,10.07,0,1,0-9.15,10.9A10.07,10.07,0,0,0,442.78,313.3Z"/><polygon class="cls-4" points="419.63 315.39 419.67 333.24 435.03 325.26 419.63 315.39"/><path class="cls-5" d="M444.94,311.92a13.64,13.64,0,1,0-12.4,14.77A13.65,13.65,0,0,0,444.94,311.92Z"/><path class="cls-4" d="M441.39,312.22a10.07,10.07,0,1,0-9.15,10.91A10.08,10.08,0,0,0,441.39,312.22Z"/><path class="cls-6" d="M246.39,402.45Q240,410,233.75,416.27a103.22,103.22,0,0,1-12.44,10.84A61,61,0,0,1,209,434.19a31.58,31.58,0,0,1-12.37,2.58,23.23,23.23,0,0,1-9.51-1.88,21.84,21.84,0,0,1-7.36-5.28,23,23,0,0,1-4.8-8.33,34.42,34.42,0,0,1-1.66-11,51.12,51.12,0,0,1,4.23-19.73,113.84,113.84,0,0,1,10.7-19.72,159,159,0,0,1,14.31-18.2q7.84-8.61,14.93-15.28l6,4.17q-5,7.36-11.19,16.67t-11.67,19.24a153.54,153.54,0,0,0-9.24,19.86,52.45,52.45,0,0,0-3.75,18.41,20.29,20.29,0,0,0,2.16,9.72q2.15,4,8.26,4,6.68,0,14.66-5.28a105,105,0,0,0,16.39-13.75,228.36,228.36,0,0,0,16.81-19.1q8.4-10.63,15.91-21.46t13.68-20.7q6.18-9.87,10.07-16.81l10.14,5q-8.06,15.84-15.49,29.52T267,391.41q-5.77,10.9-9.17,19t-3.41,12.78a5.64,5.64,0,0,0,.84,3.2,2.93,2.93,0,0,0,2.64,1.24q5.13.15,11.32-4.44a88.18,88.18,0,0,0,12.5-11.53,182.39,182.39,0,0,0,12.37-15.21q6-8.27,10.9-15.49l5,3.89c-.55.93-1.71,2.82-3.47,5.69s-3.94,6.16-6.53,9.87S294.45,408,291.12,412a106.26,106.26,0,0,1-10.56,11.18A59.57,59.57,0,0,1,269,431.56a24.55,24.55,0,0,1-11.81,3.26,16,16,0,0,1-6.46-1.25,14.45,14.45,0,0,1-4.79-3.34,15.2,15.2,0,0,1-3.06-4.86,15.54,15.54,0,0,1-1.11-5.83,30.42,30.42,0,0,1,1.18-7.92A60.5,60.5,0,0,1,246.39,402.45Z"/><path class="cls-6" d="M405.59,230.61a13.5,13.5,0,0,1,8.12,2.36q3.27,2.37,3.27,8.61a37.66,37.66,0,0,1-1.74,10.28,116,116,0,0,1-4.72,13q-3,7-7,14.73t-8.68,15.35q-4.65,7.63-9.72,14.86T375,323.13q-10,12.36-17.3,20.84t-12.57,14.37q-5.28,5.91-8.89,9.59t-6.39,6.32q-2.79,2.64-5.14,4.79t-4.86,4.8a45.51,45.51,0,0,0-1.05,10.07q.07,4.79.07,8.82,0,12.07,3.89,17.92a12.45,12.45,0,0,0,11,5.83,20.86,20.86,0,0,0,9.51-2.43,51.66,51.66,0,0,0,9.52-6.32,86.78,86.78,0,0,0,9.17-8.82q4.44-4.94,8.4-10t7.16-9.8l5.55-8.19,5.14,3.89c-.27.37-1.18,1.83-2.71,4.37s-3.54,5.63-6,9.24S374,405.9,370.58,410a104.67,104.67,0,0,1-11.11,11.46,64.21,64.21,0,0,1-12.57,8.75,28.09,28.09,0,0,1-24.32,1.33,24,24,0,0,1-9.16-6.81A35.61,35.61,0,0,1,307,412.87a54.4,54.4,0,0,1-2.44-17.36,125.49,125.49,0,0,1,3-26.47,206.49,206.49,0,0,1,8.13-27.78,251.91,251.91,0,0,1,12.08-27.58q6.94-13.6,14.8-25.91A245.83,245.83,0,0,1,359,265a177.69,177.69,0,0,1,16.81-18.13,86.19,86.19,0,0,1,15.91-11.94Q399.34,230.6,405.59,230.61ZM322.38,371.47q11.81-12.23,22.85-24.79t20.7-24.87q9.65-12.3,17.71-23.89T397.39,276a144.53,144.53,0,0,0,8.89-18.76q3.2-8.47,3.2-14.58a6.44,6.44,0,0,0-1.11-3,3.17,3.17,0,0,0-2.64-1.88q-4.31,0-11.39,5.7A114.74,114.74,0,0,0,379,259a268.35,268.35,0,0,0-17.09,22.85,289.63,289.63,0,0,0-16.6,27.92,295,295,0,0,0-13.89,30.7A180.75,180.75,0,0,0,322.38,371.47Z"/><path class="cls-6" d="M419.48,340.35q-1.82,3.61-5.07,9.52t-7,12.92q-3.75,7-7.64,14.73t-7,15a130.85,130.85,0,0,0-5.07,13.68A38.33,38.33,0,0,0,385.72,417q0,4,1.67,5.48a6.89,6.89,0,0,0,4.72,1.46,19.32,19.32,0,0,0,11.12-3.75A60.59,60.59,0,0,0,414,410.44a124.36,124.36,0,0,0,10.49-13.82q5.14-7.78,10.28-15.7l5,3.89q-4,7.21-9.1,15.42a108.61,108.61,0,0,1-11.32,15.21A61.14,61.14,0,0,1,405.59,427a30.82,30.82,0,0,1-16.39,4.58q-8.34,0-12.78-5T372,413.71a49.8,49.8,0,0,1,4.31-19.46A131.45,131.45,0,0,1,387,374.18a208.58,208.58,0,0,1,14-19.1q7.57-9.16,14-16.67Z"/><path class="cls-6" d="M545.2,340.35q-1.8,3.61-5.07,9.45t-7,12.85q-3.76,7-7.57,14.66t-6.95,14.93A144.36,144.36,0,0,0,513.46,406a37.72,37.72,0,0,0-2,10.91c0,3,.58,4.88,1.74,5.76A7.26,7.26,0,0,0,517.7,424a16.85,16.85,0,0,0,8.26-2.36,44.13,44.13,0,0,0,8.34-6.11,82.74,82.74,0,0,0,8-8.48c2.59-3.14,5-6.32,7.29-9.51s4.33-6.25,6.18-9.17l4.72-7.43,5,3.89q-2.36,4.44-5.55,9.58t-7,10.35a117.09,117.09,0,0,1-8.26,10.07,70.49,70.49,0,0,1-9.38,8.62,45.79,45.79,0,0,1-10.35,6,29.06,29.06,0,0,1-11.11,2.22q-8.34,0-12.23-5t-3.89-12.91c0-.38,0-1.19.07-2.44a15.14,15.14,0,0,1,.35-3,118.74,118.74,0,0,1-13.27,14.45,69.67,69.67,0,0,1-12.22,9,44.41,44.41,0,0,1-11.39,4.66,45.44,45.44,0,0,1-10.49,1.32A28.2,28.2,0,0,1,440.8,436a24.2,24.2,0,0,1-8.19-5.07,23.39,23.39,0,0,1-5.56-8.2,29.26,29.26,0,0,1-2-11.25,56.25,56.25,0,0,1,3.54-18.13q3.54-10.22,12.57-22a103.89,103.89,0,0,1,15.91-17.09,94.37,94.37,0,0,1,16.25-11.18,68.52,68.52,0,0,1,15.21-6,54.21,54.21,0,0,1,12.92-1.81q12.78,0,19.31,4.24t7.92,13q2.77-3.46,5.84-6.95t6.25-7.08Zm-42.65,52.79q1.81-2.91,4.45-7.43t5.56-9.31q2.91-4.78,5.69-9.24c1.85-3,3.48-5.46,4.86-7.5a36.83,36.83,0,0,0-.34-4,16.29,16.29,0,0,0-1.88-5.62,13.37,13.37,0,0,0-4.86-4.93c-2.22-1.39-5.33-2.09-9.31-2.09a40.62,40.62,0,0,0-9.65,1.32,52.8,52.8,0,0,0-11.39,4.45A75.17,75.17,0,0,0,473.24,357a92.32,92.32,0,0,0-12.78,12.79,101.27,101.27,0,0,0-14.79,23.12q-5.22,11.61-5.21,20.91,0,7.92,3.61,12.23t10.28,4.3a31,31,0,0,0,14.31-3.4,55.28,55.28,0,0,0,12.5-8.82,111.74,111.74,0,0,0,11.12-12Q497.55,399.55,502.55,393.14Z"/><path class="cls-6" d="M59.3,328.14a3.78,3.78,0,0,1-.52,5.31L54,337.68a3.77,3.77,0,0,1-5.33-.11h0a3.77,3.77,0,0,1,.52-5.31L54,328a3.78,3.78,0,0,1,5.34.11Z"/><path class="cls-6" d="M90.7,300.26a3.78,3.78,0,0,1-.53,5.31l-4.76,4.23a3.78,3.78,0,0,1-5.34-.11h0a3.78,3.78,0,0,1,.52-5.31l4.77-4.23a3.78,3.78,0,0,1,5.34.11Z"/><path class="cls-6" d="M90.78,307.31a2.64,2.64,0,0,1-.37,3.7l-31,27.57a2.63,2.63,0,0,1-3.72-.08L40,320.85a2.65,2.65,0,0,1,.36-3.71l31.05-27.57a2.63,2.63,0,0,1,3.72.08ZM45.93,320.05l11.63,13.1c.49.55,1.6.35,2.49-.44L84.5,311c.89-.79,1.21-1.87.73-2.42L73.6,295.48c-.49-.55-1.6-.35-2.49.44-3.06,2.71-2,3.92-5,6.63s-4.12,1.51-7.18,4.23-2,3.91-5,6.63-4.13,1.51-7.18,4.22C45.77,318.42,45.44,319.5,45.93,320.05Z"/><path class="cls-6" d="M225.68,280Q220,279.4,214,278.92a396.73,396.73,0,0,0,12.4-51.19,340.28,340.28,0,0,0,4.87-51.87q.08-7.85-.26-14.61t-1.12-12.67a95.73,95.73,0,0,0-5.23-21.94,59.35,59.35,0,0,0-3.85-8.17c-4.4-1.14-7.87-.34-11.17,2.86A65,65,0,0,1,213,128.9a81.24,81.24,0,0,1,4,17.34,167.62,167.62,0,0,1,.88,28.75,360.65,360.65,0,0,1-4.36,40q-2.46,15.18-6.39,31t-9.21,31.91q-10.56-.4-20.95,0t-20.72,1.78a200.58,200.58,0,0,0-30.66,6.53,163.17,163.17,0,0,0-28.34,11.33,141,141,0,0,0-24.82,16.27A113.28,113.28,0,0,0,52.35,335a129.88,129.88,0,0,0-10.73,17.33,99.42,99.42,0,0,0-6.55,16.07,69.49,69.49,0,0,0-2.86,14.82,64.45,64.45,0,0,0,.29,13.27q1.59,12,7,20.3A45.78,45.78,0,0,0,52.6,430.16,46.9,46.9,0,0,0,69.13,437a51.94,51.94,0,0,0,17.33.71,69.76,69.76,0,0,0,19-5.47,108.82,108.82,0,0,0,19-10.86,165.55,165.55,0,0,0,18.44-15.21,209.15,209.15,0,0,0,17.18-18.4A217.93,217.93,0,0,0,175.24,367a207,207,0,0,0,12.42-22q7-14.52,13.06-29.34t11.13-30.07q6.09.45,12,1.14t11.89,1.43l1.21-6.75Q231.37,280.68,225.68,280Zm-44.1,40.9q-7.68,17.55-16.44,33.43a310.55,310.55,0,0,1-18.36,29.49A179.78,179.78,0,0,1,127,407.58a99.59,99.59,0,0,1-20.69,16.14,50.27,50.27,0,0,1-21,6.84,43.94,43.94,0,0,1-15.11-.37,31.58,31.58,0,0,1-11.89-5.07A28.9,28.9,0,0,1,50.15,416,33.83,33.83,0,0,1,46,403.42a58,58,0,0,1,1.37-20.29,96,96,0,0,1,8.81-23.31A130.49,130.49,0,0,1,72.52,336a132.82,132.82,0,0,1,23.94-21.82A154.14,154.14,0,0,1,127.94,297,157,157,0,0,1,167,286.85q7.29-1,14.32-1.34t14.18-.34Q189.26,303.38,181.58,320.94Z"/><path class="cls-6" d="M249.8,288.6a21.75,21.75,0,0,1-7,8.12c-4.07,2.69,3-8.85,3-8.85"/><path class="cls-6" d="M250.28,285.9a21.7,21.7,0,0,0-3.71-10c-2.88-3.94-.3,9.32-.3,9.32"/><path class="cls-6" d="M241.83,285a5.6,5.6,0,0,0-.26,2.05,18.25,18.25,0,0,0,2.79,2.75c5.7,4.73,59.39,12.49,59.39,12.49a7,7,0,0,0,6.61-4.19s-.09-4.83-4.73-6.24c0,0-53-11.46-60-9A17.23,17.23,0,0,0,241.83,285Z"/><path class="cls-6" d="M285.66,297s-7.21,14.87-22.46,23.92c-13.18,7.82,9.27-26.3,9.27-26.3"/><path class="cls-6" d="M267.81,302.29a1.44,1.44,0,0,1-1.28-1.59h0a1.44,1.44,0,0,1,1.75-1l3.05.55a1.46,1.46,0,0,1,1.28,1.59h0a1.45,1.45,0,0,1-1.76,1Z"/><path class="cls-6" d="M264.28,309A1.44,1.44,0,0,1,263,307.4h0a1.45,1.45,0,0,1,1.75-1l3.05.55a1.45,1.45,0,0,1,1.28,1.59h0a1.45,1.45,0,0,1-1.76,1Z"/><path class="cls-6" d="M286.82,290.56s-1.58-16.45-12.71-30.25c-9.62-11.94-.48,27.88-.48,27.88"/><path class="cls-6" d="M271.94,279.35a1.46,1.46,0,0,0-1.76,1h0a1.46,1.46,0,0,0,1.29,1.6l3,.54a1.44,1.44,0,0,0,1.76-1h0A1.46,1.46,0,0,0,275,279.9Z"/><path class="cls-6" d="M271,271.84a1.44,1.44,0,0,0-1.75,1.05h0a1.43,1.43,0,0,0,1.28,1.58l3,.55a1.44,1.44,0,0,0,1.76-1h0a1.46,1.46,0,0,0-1.29-1.59Z"/><path class="cls-2" d="M222.67,452.83a26.55,26.55,0,0,1-1,6.8.44.44,0,0,1-.45.34.46.46,0,0,1-.45-.34,12.29,12.29,0,0,0-1.74-4.55,8.75,8.75,0,0,0-3-2.76,12.63,12.63,0,0,0-4-1.4,27.56,27.56,0,0,0-4.72-.4h-13.6v65.63a10.92,10.92,0,0,0,2.87,7.64,11.84,11.84,0,0,0,7.13,3.82.41.41,0,0,1,.28.51q-.06.39-.39.39-3.93-.33-7.92-.56t-8-.22c-2,0-3.87,0-5.78.17s-3.84.24-5.79.39q-.34,0-.39-.39a.4.4,0,0,1,.28-.51,21.33,21.33,0,0,0,4.21-1.24,5,5,0,0,0,2.25-1.79,6.52,6.52,0,0,0,.9-2.87c.11-1.16.16-2.64.16-4.44V450.64H164.91a9.1,9.1,0,0,0-6.35,2.53,16.6,16.6,0,0,0-4.1,5.67c-.15.23-.32.32-.5.28a.34.34,0,0,1-.28-.39,9.69,9.69,0,0,1-.23-2,17.44,17.44,0,0,1,.56-4.39c.38-1.42.79-2.88,1.24-4.38.22-.75.45-1.48.67-2.19s.41-1.4.57-2.08c.14-.45.37-.52.67-.22a13.08,13.08,0,0,0,4.61,1.85,30.42,30.42,0,0,0,5.17.39h48.77a7.59,7.59,0,0,0,2-.28l2-.5c.37-.08.8-.15,1.29-.23l1.52-.22c.22,0,.34.15.34.45v.9Q222.79,449.07,222.67,452.83Z"/><path class="cls-2" d="M278,503.4a31.09,31.09,0,0,1-7,9.61,32.14,32.14,0,0,1-10.17,6.29,33.4,33.4,0,0,1-12.2,2.25A26.25,26.25,0,0,1,237.68,519a41.88,41.88,0,0,1-10.4-6.74,38.21,38.21,0,0,1-7.81-9.44,20.94,20.94,0,0,1-3.09-10.68A57.29,57.29,0,0,1,217.9,478a24.1,24.1,0,0,1,13.76-16.74,60,60,0,0,1,13.49-4.33l1.46-.11A27.93,27.93,0,0,1,260,458.9a32.69,32.69,0,0,1,10.79,7.41,35.07,35.07,0,0,1,7.25,11.3,36.13,36.13,0,0,1,2.64,13.71A27.83,27.83,0,0,1,278,503.4Zm-6.52-23.21a32.3,32.3,0,0,0-4.83-9.89,25.49,25.49,0,0,0-7.87-7.08,21.11,21.11,0,0,0-10.73-2.69,23.66,23.66,0,0,0-10.17,2.08,21.17,21.17,0,0,0-7.47,5.73,26.41,26.41,0,0,0-4.67,8.43,31.42,31.42,0,0,0-1.63,10.17,37.93,37.93,0,0,0,1.69,11.12,32.21,32.21,0,0,0,5,9.95,26.81,26.81,0,0,0,8,7.19A21,21,0,0,0,249.64,518a21.77,21.77,0,0,0,17.48-8,25.38,25.38,0,0,0,4.49-8.49,34,34,0,0,0,1.52-10.23A38.54,38.54,0,0,0,271.5,480.19Z"/><path class="cls-2" d="M342.58,462.27a6.32,6.32,0,0,0-1.58,4.21V496.6a28.35,28.35,0,0,1-1.68,9.78,24.8,24.8,0,0,1-4.72,8,21.6,21.6,0,0,1-7.36,5.39,23.13,23.13,0,0,1-9.72,2,23.57,23.57,0,0,1-7.7-1.29,26.67,26.67,0,0,1-7-3.65,29.94,29.94,0,0,1-5.79-5.51,22,22,0,0,1-3.77-6.85,9,9,0,0,1-.5-2.42c-.11-1.09-.19-2.32-.23-3.71s-.07-2.9-.11-4.55,0-3.3,0-4.94c0-2,0-3.86,0-5.74s.06-3.59.06-5.16V466.59q0-3.25-1.74-4.6a13.37,13.37,0,0,0-4.78-2.14.4.4,0,0,1-.28-.5c0-.27.17-.4.39-.4q6.4.35,12.7.34h3.49c1.12,0,2.28,0,3.48-.11a.45.45,0,0,1,.45.34.46.46,0,0,1-.23.56,15.74,15.74,0,0,0-3.65,2.64,5.1,5.1,0,0,0-1.85,3.76l-.23,34.39a17.76,17.76,0,0,0,1.29,6.91,14.91,14.91,0,0,0,3.66,5.28,17,17,0,0,0,5.56,3.43,18.89,18.89,0,0,0,6.91,1.24,19.66,19.66,0,0,0,7.08-1.24,16.61,16.61,0,0,0,5.62-3.48,15.49,15.49,0,0,0,3.65-5.4,18.49,18.49,0,0,0,1.29-7.08l-.22-33.94q0-3.25-1.69-4.77a9.64,9.64,0,0,0-4.83-2.08.41.41,0,0,1-.28-.51q.06-.39.39-.39a56.72,56.72,0,0,0,6.18.34q.9,0,1.86-.06c.63,0,1.25-.05,1.85-.05q1.92,0,3.93-.06t4.05.06l.11.9A6.68,6.68,0,0,0,342.58,462.27Z"/><path class="cls-2" d="M409.16,521.27a17.68,17.68,0,0,1-4.1.5,14.47,14.47,0,0,1-6.07-1.23,19.34,19.34,0,0,1-4.83-3.15,29.54,29.54,0,0,1-4-4.38q-1.86-2.47-3.54-5.06c-1.05-1.57-2.16-3.13-3.32-4.66a28.12,28.12,0,0,0-3.82-4.16,18.36,18.36,0,0,0-4.49-3,12.77,12.77,0,0,0-5.45-1.12h-1.8a7,7,0,0,0-1.69.22v16a8.28,8.28,0,0,0,2,5.56,7.58,7.58,0,0,0,5.23,2.64v.9c-1.73-.15-3.43-.28-5.12-.39s-3.39-.17-5.11-.17-3.39.07-5,.22-3.28.34-5,.57c-.23.07-.4,0-.51-.29a.45.45,0,0,1,.17-.61,10,10,0,0,0,3.93-3.38,8.23,8.23,0,0,0,1.58-4.83V466.59a6.44,6.44,0,0,0-1.86-4.55,9.13,9.13,0,0,0-4.44-2.64.4.4,0,0,1-.28-.5c0-.26.17-.4.4-.4h22.13a28.27,28.27,0,0,1,6.86.85,17.94,17.94,0,0,1,6,2.64,13.37,13.37,0,0,1,4.15,4.72,14.48,14.48,0,0,1,1.58,7,19.23,19.23,0,0,1-3,10.23,40.65,40.65,0,0,1-6.69,8.32,33.85,33.85,0,0,1,2.7,3.42q1.45,2.08,3.15,4.33,2.46,3.38,5.22,6.91a57.21,57.21,0,0,0,5.79,6.41,26.21,26.21,0,0,0,6.29,4.49,11.19,11.19,0,0,0,6.63,1.18l.34.9A21.49,21.49,0,0,1,409.16,521.27ZM383.87,472a17.18,17.18,0,0,0-2.52-5.28,14.13,14.13,0,0,0-4.16-3.88,10.76,10.76,0,0,0-5.73-1.52,22.24,22.24,0,0,0-2.7.17,8.86,8.86,0,0,0-2.58.73v28a30.81,30.81,0,0,0,3.7.45c1.2.08,2.44.12,3.71.12q6.3,0,8.71-3.43c1.61-2.29,2.42-5.45,2.42-9.5A20.74,20.74,0,0,0,383.87,472Z"/><path class="cls-2" d="M448.15,511.1a20.08,20.08,0,0,1-5.28,5.56,26.22,26.22,0,0,1-7.08,3.59,23.06,23.06,0,0,1-7.36,1.3,16.63,16.63,0,0,1-3.54-.4,10.93,10.93,0,0,1-3.37-1.29,7.68,7.68,0,0,1-2.47-2.3,6.15,6.15,0,0,1-1-3.54,13.75,13.75,0,0,1,.28-2.7q.28-1.35.51-2.58l.56-2.7c0-.23.15-.34.45-.34s.45.11.45.34v1.68a8.37,8.37,0,0,0,1,4.16,10.89,10.89,0,0,0,2.59,3.09,10.19,10.19,0,0,0,3.65,1.91,14.4,14.4,0,0,0,4.21.62,13.74,13.74,0,0,0,4.16-.67,13.27,13.27,0,0,0,3.88-2,10.9,10.9,0,0,0,2.86-3.15,7.73,7.73,0,0,0,1.13-4.1,9.48,9.48,0,0,0-1-4.21,23.35,23.35,0,0,0-2.69-4.22,52.24,52.24,0,0,0-3.82-4.27q-2.15-2.13-4.39-4.27t-4.72-4.55a39,39,0,0,1-4.15-4.72,26.09,26.09,0,0,1-2.92-4.89,11.9,11.9,0,0,1-1.13-5.05,10.39,10.39,0,0,1,2.14-6.58,17,17,0,0,1,5.28-4.49,26.17,26.17,0,0,1,6.85-2.59,31.19,31.19,0,0,1,6.86-.84,28.52,28.52,0,0,1,8.2,1.12c.23.16.34.31.34.45q-.45,5.52-1.35,11.35a.47.47,0,0,1-.9,0,14.78,14.78,0,0,0-3.43-6.74,8.55,8.55,0,0,0-6.68-2.81,9.92,9.92,0,0,0-7.14,2.75,9.33,9.33,0,0,0-2.86,7,9.14,9.14,0,0,0,.95,4.16,19.15,19.15,0,0,0,2.47,3.71,32.83,32.83,0,0,0,3.54,3.54q2,1.74,4.16,3.53c1.57,1.28,3.13,2.61,4.66,4a34.43,34.43,0,0,1,4.11,4.39,22.78,22.78,0,0,1,2.92,4.88,14,14,0,0,1,1.12,5.62A13.09,13.09,0,0,1,448.15,511.1Z"/><path class="cls-7" d="M200.9,86.33A5.35,5.35,0,0,0,197.8,92a5.35,5.35,0,0,0,9.08-4.57A5.38,5.38,0,0,0,200.9,86.33Z"/><path class="cls-8" d="M197.8,92a5.35,5.35,0,0,1,9.08-4.57,5.36,5.36,0,1,0-10.2,3A5.41,5.41,0,0,0,197.8,92Z"/><path class="cls-9" d="M216.77,83.71a16.3,16.3,0,0,0-1.18-2.13c2.75,7.78-2.41,18.53-2.72,31.8-9.66-8.2-20.52-11.57-25-18.14.14.4.29.8.47,1.2,3.51,7.84,15.49,11,26,20C214.71,102.62,220.29,91.55,216.77,83.71Z"/><path class="cls-7" d="M206.88,87.44a5.36,5.36,0,1,0-10.2,3A5.41,5.41,0,0,0,197.8,92,5.36,5.36,0,1,0,208,89,5.41,5.41,0,0,0,206.88,87.44Z"/><path class="cls-7" d="M203.78,93.12a5.42,5.42,0,1,0-6-1.11A5.37,5.37,0,0,0,203.78,93.12Z"/><path class="cls-6" d="M215.59,81.58c-.11-.3-.2-.6-.33-.9a15.56,15.56,0,0,0-28.4,12.73,12.75,12.75,0,0,0,1,1.83c4.44,6.57,15.3,9.94,25,18.14C213.18,100.11,218.34,89.36,215.59,81.58Zm-18.91,8.83A5.42,5.42,0,1,1,197.8,92,5.37,5.37,0,0,1,196.68,90.41Z"/></svg>